<!-- Generator: Adobe Illustrator 18.1.1, SVG Export Plug-In  -->
<svg version="1.1"
	 xmlns="http://www.w3.org/2000/svg" xmlns:xlink="http://www.w3.org/1999/xlink" xmlns:a="http://ns.adobe.com/AdobeSVGViewerExtensions/3.0/"
	 x="0px" y="0px" width="174.095px" height="174.077px" viewBox="0 0 174.095 174.077" enable-background="new 0 0 174.095 174.077"
	 xml:space="preserve">
<defs>
</defs>
<g>
	<path fill="#FFFFFF" d="M49.649,77.328c0,4.213,0.766,4.979,2.489,5.937c2.518,1.257,6.568,2.412,10.511,2.944V69.623
		c0-19.719-4.786-16.849-12.062-17.422c-0.278-0.049-0.606-0.094-0.938-0.18V77.328z"/>
	<path fill="#FFFFFF" d="M28.78,146.064c7.276-1.531,7.083-7.276,7.083-17.041V41.716c0-12.623-0.757-16.71-9.176-17.385
		C10.236,40.168,0,62.41,0,87.046c0,22.958,8.889,43.831,23.404,59.382C25.071,146.146,27.191,146.404,28.78,146.064"/>
	<path fill="#FFFFFF" d="M63.627,24.293c-4.594,0-10.531,0.192-12.828,4.406c-0.766,1.531-1.151,3.636-1.151,12.058v5.642
		c0.438-0.098,0.893-0.135,1.323-0.135c5.36,0,10.531,0.573,15.891,0.573h25.361C89.639,32.708,79.873,24.293,63.627,24.293"/>
	<path fill="#FFFFFF" d="M76.434,84.648c9.094-3.746,16.484-13.25,16.484-29.722c0-0.729-0.02-1.441-0.049-2.15
		c-16.239,0.029-16.435,1.06-16.435,7.657V84.648z"/>
	<path fill="#FFFFFF" d="M29.314,152.189c9.106,8.078,19.92,14.282,31.83,17.987c1.818-3.787,1.507-9.548,1.507-13.246v-4.586
		c-6.215-0.176-12.292-1.114-18.364-1.114C39.321,151.231,34.358,151.862,29.314,152.189"/>
	<path fill="#FFFFFF" d="M49.649,94.178v34.848c0,16.198,3.976,16.837,13,17.311V92.9c-2.391-0.467-4.66-1.085-6.682-1.785
		c-3.443-1.151-4.021-1.531-4.594-1.531C49.456,89.584,49.649,92.073,49.649,94.178"/>
	<path fill="#FFFFFF" d="M87.046,0C66.688,0,47.964,6.989,33.142,18.695c3.251,0.209,6.502,0.43,9.806,0.43
		c4.979,0,9.954-0.577,14.933-0.958c2.682-0.192,5.552-0.385,8.234-0.385c6.154,0,35.683,0.348,40.486,28.997
		c5.339-0.074,11.419-0.197,14.445-0.323c5.552-0.385,6.318-0.573,6.318,1.531c0,1.531-0.192,3.255-0.192,5.937l-0.192,8.996v9
		v2.297c0,0.766,0,2.874-1.724,2.874c-2.105,0-2.297-1.916-3.255-4.406l-1.912-5.36c-2.436-6.907-4.692-11.321-12.84-13.311
		c0.004,0.373,0.033,0.725,0.033,1.106c0,23.4-15.068,36.126-30.848,38.328v3.935c0,3.063,0,5.937,5.171,5.937h14.933
		c10.723,0,12.255-6.318,13.786-12.443c0.958-3.255,1.339-4.598,3.255-4.598c0.958,0,2.105,0.573,2.105,3.255
		c0,4.979-2.678,12.062-0.381,38.103c0.192,2.678,0.766,6.699-2.297,6.699c-2.301,0-2.301-2.489-3.448-8.615
		c-2.682-15.891-9.188-16.464-18.953-16.464H79.881c-1.724,0-3.448,0-3.448,5.36v42.312c0,10.339,0.958,16.083,8.811,16.849
		l3.378,0.299c47.344-0.839,85.472-39.479,85.472-87.028C174.095,38.971,135.12,0,87.046,0z M152.607,61.683h-2.076
		c-0.749,0-1.441,0.397-1.814,1.044l-1.04,1.802c-0.807,1.396-2.821,1.396-3.624,0l-1.04-1.802
		c-0.377-0.647-1.065-1.044-1.814-1.044h-2.08c-1.609,0-2.616-1.744-1.814-3.141l1.04-1.802c0.377-0.647,0.377-1.445,0-2.092
		l-1.04-1.802c-0.802-1.396,0.205-3.141,1.814-3.141h2.08c0.749,0,1.437-0.397,1.814-1.044l1.04-1.802
		c0.802-1.396,2.817-1.396,3.624,0l1.04,1.802c0.373,0.647,1.065,1.044,1.814,1.044h2.076c1.613,0,2.62,1.744,1.814,3.141
		l-1.04,1.802c-0.373,0.647-0.373,1.445,0,2.092l1.04,1.802C155.227,59.939,154.22,61.683,152.607,61.683z"/>
</g>
</svg>